<svg xmlns="http://www.w3.org/2000/svg" version="1.1" xmlns:xlink="http://www.w3.org/1999/xlink" xmlns:svgjs="http://svgjs.dev/svgjs" width="100%" height="100%" viewBox="0 0 1000 600"><rect width="1000" height="600" x="0" y="0" fill="#ff0000"/><g><rect width="333.3333333333333" height="333.3333333333333" y="252.47136644840518" fill="#" transform="matrix(0.542890164949711,0,0,0.5428901649497109,0,72.45407709051877)" x="230.2490997314453"/><path d="M361.284635475993 346.34392569937285L378.04321291500526 346.34392569937285L378.04321291500526 491.9321523724732L356.1988514634226 491.9321523724732L295.3226295780164 394.4444130471775L279.8814540217785 367.0853460397956L279.66699325016407 367.0853460397956L280.5554735897095 389.14416826299265L280.5554735897095 491.9321523724732L263.7968961506973 491.9321523724732L263.7968961506973 346.34392569937285L285.6106203491922 346.34392569937285L346.27238146298396 443.4027434814397L361.95865504392407 471.4051928036648L362.1731158155385 471.4051928036648L361.284635475993 449.1319098088534L361.284635475993 346.34392569937285ZM472.46722693152356 344.13804347705315L472.46722693152356 344.13804347705315Q491.64614736446987 344.13804347705315 505.55546026631913 351.9811802675232Q519.4341359150806 359.7936798049055 528.7172236006759 375.020394589529L528.7172236006759 375.020394589529L513.9194303592813 386.4787272443563Q505.7699210379335 372.38559082398046 495.5064412535293 366.5338754842157Q485.24296146912513 360.6821601444509 470.6902662524327 360.6821601444509L470.6902662524327 360.6821601444509Q459.0174728259909 360.6821601444509 451.38879680713535 363.9909834779305Q443.79075804136744 367.29980681141 440.26747393627346 372.69196335485816Q436.7135525780917 378.1147571513941 436.7135525780917 384.9468645899676L436.7135525780917 384.9468645899676Q436.7135525780917 392.6674523680866 441.58487581904774 398.51916770785135Q446.425561806916 404.37088304761613 460.9782570236085 407.6797063810957L460.9782570236085 407.6797063810957L492.5346277040153 414.72627459128364Q513.4905088160524 419.3524998075374 521.7625671497512 428.72749925239617Q530.0346254834503 438.1024986972549 530.0346254834503 452.01181159910413L530.0346254834503 452.01181159910413Q530.0346254834503 464.3586245934769 523.0799690325257 473.94808480995005Q516.1253125816011 483.53754502642323 503.56403881561386 488.837789810608Q491.0027650496266 494.1380345947929 473.9990895859122 494.1380345947929L473.9990895859122 494.1380345947929Q458.12899248644544 494.1380345947929 446.08855202295047 489.8488191625046Q434.07874881254315 485.5289664771285 425.4696806948788 478.2679374953261Q416.8606125772144 470.97627126043596 411.34590702141514 461.9382815995428L411.34590702141514 461.9382815995428L426.7870825776531 449.3463705804678Q430.9843862506781 457.7409779265178 437.6020329176372 464.1441638218625Q444.2196795845963 470.54734971720717 453.59467902945505 474.07063382230115Q462.9696784743137 477.5939179273951 475.1020306970721 477.5939179273951L475.1020306970721 477.5939179273951Q486.34590258028504 477.5939179273951 494.61796091398395 474.8365651494955Q502.89001924768274 472.0792123715959 507.3017836923222 466.6870558281477Q511.7135481369616 461.2642620316118 511.7135481369616 453.5436742534928L511.7135481369616 453.5436742534928Q511.7135481369616 446.4971060433049 507.0873229207078 440.8598514751545Q502.46109770445395 435.25323416009195 489.6547259137646 432.37333236984125L489.6547259137646 432.37333236984125L455.4635514678092 424.65274459172224Q442.0137973622766 421.5583820298571 433.7417390285777 416.16622548640896Q425.4696806948788 410.74343168987303 421.82384757743375 403.3598536957196Q418.20865171307645 395.9762757015661 418.20865171307645 387.36720758390175L418.20865171307645 387.36720758390175Q418.20865171307645 375.69441415746 424.70374936768445 365.8598559162847Q431.1988470222925 356.0559349281971 443.4537482574019 350.08167057608125Q455.70864949251137 344.13804347705315 472.46722693152356 344.13804347705315Z " fill="#ee4e34" transform="matrix(0.542890164949711,0,0,0.5428901649497109,0,72.45407709051877)"/><path d="M744.4035014427898 346.34392569937285L761.162078881802 346.34392569937285L761.162078881802 491.9321523724732L739.3177174302194 491.9321523724732L678.4414955448132 394.4444130471775L663.0003199885753 367.0853460397956L662.7858592169608 367.0853460397956L663.6743395565063 389.14416826299265L663.6743395565063 491.9321523724732L646.9157621174941 491.9321523724732L646.9157621174941 346.34392569937285L668.7294863159889 346.34392569937285L729.3912474297808 443.4027434814397L745.0775210107208 471.4051928036648L745.2919817823353 471.4051928036648L744.4035014427898 449.1319098088534L744.4035014427898 346.34392569937285ZM851.6032499969098 494.1380345947929L851.6032499969098 494.1380345947929Q835.9476136690575 494.1380345947929 823.692712433948 487.30592715621935Q811.4684484519264 480.4738197176458 804.6363410133529 467.54489891460537Q797.7735963216915 454.6466153646527 797.7735963216915 436.78509681448065L797.7735963216915 436.78509681448065Q797.7735963216915 418.9235782643086 804.6363410133529 406.0252947143559Q811.4684484519264 393.0963739113154 823.3863399030703 386.2642664727419Q835.2735941011265 379.43215903416836 850.50030888575 379.43215903416836L850.50030888575 379.43215903416836Q865.9414844419879 379.43215903416836 876.8789837943231 386.04980570112747Q887.7858458935705 392.6674523680866 893.5150122209841 404.0338732636506Q899.2441785483978 415.40029415921464 899.2441785483978 429.4934305795905L899.2441785483978 429.4934305795905Q899.2441785483978 433.2618127093867 899.0297177767834 436.3561752712518Q898.815257005169 439.41990058002915 898.3863354619401 441.87088082705105L898.3863354619401 441.87088082705105L809.2625662296066 441.87088082705105L809.2625662296066 426.18460724611094L890.6657476838212 426.18460724611094L881.5971207698401 427.96156792520185Q881.5971207698401 412.0914708257351 872.8961408929125 403.4824027080707Q864.1951610159848 394.8733345904063 850.0713873425211 394.8733345904063L850.0713873425211 394.8733345904063Q839.256437002537 394.8733345904063 831.4133002120669 399.83656959062563Q823.6008006746847 404.79980459084493 819.2809479893086 414.1748040357037Q814.9917325570203 423.54980348056245 814.9917325570203 436.78509681448065L814.9917325570203 436.78509681448065Q814.9917325570203 449.80592937678443 819.4034970016597 459.2728405809065Q823.815261446299 468.7703890381163 831.8728590083836 473.7336240383356Q839.9304565704681 478.696859038555 851.174328453681 478.696859038555L851.174328453681 478.696859038555Q863.3066806764393 478.696859038555 870.9047194422071 474.07063382230115Q878.5333954610628 469.4444086060473 883.1596206773166 461.4787228032262L883.1596206773166 461.4787228032262L897.0382963260781 469.65886937766174Q892.8716299061409 477.16499638416633 886.3458949984451 482.6797019399655Q879.850797343837 488.19440749576484 871.1191802138216 491.1662210452788Q862.418200336894 494.1380345947929 851.6032499969098 494.1380345947929ZM978.4414777802926 379.43215903416836L978.4414777802926 379.43215903416836Q994.097114108145 379.43215903416836 1006.1375545716401 386.2642664727419Q1018.1473577820473 393.0963739113154 1024.9794652206208 406.0252947143559Q1031.8422099122822 418.9235782643086 1031.8422099122822 436.78509681448065L1031.8422099122822 436.78509681448065Q1031.8422099122822 454.6466153646527 1024.9794652206208 467.54489891460537Q1018.1473577820473 480.4738197176458 1006.1375545716401 487.30592715621935Q994.097114108145 494.1380345947929 978.4414777802926 494.1380345947929L978.4414777802926 494.1380345947929Q963.0003022240548 494.1380345947929 950.8679500012963 487.30592715621935Q938.735597778538 480.4738197176458 931.9034903399645 467.54489891460537Q925.071382901391 454.6466153646527 925.071382901391 436.78509681448065L925.071382901391 436.78509681448065Q925.071382901391 418.9235782643086 931.9034903399645 406.0252947143559Q938.735597778538 393.0963739113154 950.8679500012963 386.2642664727419Q963.0003022240548 379.43215903416836 978.4414777802926 379.43215903416836ZM978.4414777802926 394.6588738187919L978.4414777802926 394.6588738187919Q967.1976058970797 394.6588738187919 959.2625573473464 399.7140205782745Q951.3275087976131 404.79980459084493 947.0076561122369 414.1748040357037Q942.7184406799486 423.54980348056245 942.7184406799486 436.78509681448065L942.7184406799486 436.78509681448065Q942.7184406799486 449.80592937678443 947.0076561122369 459.2728405809065Q951.3275087976131 468.7703890381163 959.2625573473464 473.8561730506867Q967.1976058970797 478.9113198101694 978.4414777802926 478.9113198101694L978.4414777802926 478.9113198101694Q989.6853496635056 478.9113198101694 997.6510354663267 473.8561730506867Q1005.5860840160601 468.7703890381163 1009.8752994483484 459.2728405809065Q1014.1951521337245 449.80592937678443 1014.1951521337245 436.78509681448065L1014.1951521337245 436.78509681448065Q1014.1951521337245 423.54980348056245 1009.8752994483484 414.1748040357037Q1005.5860840160601 404.79980459084493 997.6510354663267 399.7140205782745Q989.6853496635056 394.6588738187919 978.4414777802926 394.6588738187919ZM1115.2061755641141 344.13804347705315L1115.2061755641141 344.13804347705315Q1134.4157332501482 344.13804347705315 1148.2944088989098 351.9811802675232Q1162.203721800759 359.7936798049055 1171.4561722332667 375.020394589529L1171.4561722332667 375.020394589529L1156.6890162449595 386.4787272443563Q1148.5088696705243 372.38559082398046 1138.2760271392078 366.5338754842157Q1128.0125473548037 360.6821601444509 1113.459852138111 360.6821601444509L1113.459852138111 360.6821601444509Q1101.7564214585816 360.6821601444509 1094.1583826928136 363.9909834779305Q1086.5297066739581 367.29980681141 1083.006422568864 372.69196335485816Q1079.48313846377 378.1147571513941 1079.48313846377 384.9468645899676L1079.48313846377 384.9468645899676Q1079.48313846377 392.6674523680866 1084.3238244516383 398.51916770785135Q1089.1951476925942 404.37088304761613 1103.7478429092869 407.6797063810957L1103.7478429092869 407.6797063810957L1135.2735763366059 414.72627459128364Q1156.2294574486432 419.3524998075374 1164.501515782342 428.72749925239617Q1172.773574116041 438.1024986972549 1172.773574116041 452.01181159910413L1172.773574116041 452.01181159910413Q1172.773574116041 464.3586245934769 1165.849554918204 473.94808480995005Q1158.8948984672793 483.53754502642323 1146.3029874482045 488.837789810608Q1133.7417136822173 494.1380345947929 1116.7686754715905 494.1380345947929L1116.7686754715905 494.1380345947929Q1100.867941119036 494.1380345947929 1088.8581379086288 489.8488191625046Q1076.817697445134 485.5289664771285 1068.2392665805571 478.2679374953261Q1059.6301984628928 470.97627126043596 1054.1154929070935 461.9382815995428L1054.1154929070935 461.9382815995428L1069.5566684633313 449.3463705804678Q1073.7539721363564 457.7409779265178 1080.3716188033154 464.1441638218625Q1086.9892654702746 470.54734971720717 1096.3642649151334 474.07063382230115Q1105.7392643599921 477.5939179273951 1117.8716165827504 477.5939179273951L1117.8716165827504 477.5939179273951Q1129.1154884659634 477.5939179273951 1137.3875467996622 474.8365651494955Q1145.659605133361 472.0792123715959 1150.0713695780005 466.6870558281477Q1154.4831340226401 461.2642620316118 1154.4831340226401 453.5436742534928L1154.4831340226401 453.5436742534928Q1154.4831340226401 446.4971060433049 1149.8569088063862 440.8598514751545Q1145.2000463370446 435.25323416009195 1132.4243117994429 432.37333236984125L1132.4243117994429 432.37333236984125L1098.2331373534876 424.65274459172224Q1084.7833832479548 421.5583820298571 1076.511324914256 416.16622548640896Q1068.2392665805571 410.74343168987303 1064.5934334631122 403.3598536957196Q1060.947600345667 395.9762757015661 1060.947600345667 387.36720758390175L1060.947600345667 387.36720758390175Q1060.947600345667 375.69441415746 1067.442698000275 365.8598559162847Q1073.968432907971 356.0559349281971 1086.1926968899925 350.08167057608125Q1098.447598125102 344.13804347705315 1115.2061755641141 344.13804347705315ZM1268.5149900153335 344.13804347705315L1268.5149900153335 344.13804347705315Q1289.2564103557563 344.13804347705315 1304.3605761280287 353.2985821502975Q1319.464741900301 362.45912082354175 1327.736800234 379.217698262554Q1336.0088585676988 395.9762757015661 1336.0088585676988 419.138039035923L1336.0088585676988 419.138039035923Q1336.0088585676988 442.2998023702799 1327.736800234 459.05837980929203Q1319.464741900301 475.8169572483042 1304.3605761280287 484.97749592154855Q1289.2564103557563 494.1380345947929 1268.5149900153335 494.1380345947929L1268.5149900153335 494.1380345947929Q1247.7735696749107 494.1380345947929 1232.6694039026384 484.97749592154855Q1217.5652381303657 475.8169572483042 1209.2931797966671 459.05837980929203Q1201.021121462968 442.2998023702799 1201.021121462968 419.138039035923L1201.021121462968 419.138039035923Q1201.021121462968 395.9762757015661 1209.2931797966671 379.217698262554Q1217.5652381303657 362.45912082354175 1232.6694039026384 353.2985821502975Q1247.7735696749107 344.13804347705315 1268.5149900153335 344.13804347705315ZM1268.5149900153335 360.6821601444509L1268.5149900153335 360.6821601444509Q1253.5333732554122 360.6821601444509 1242.5039621438136 367.63681659537554Q1231.4745510322152 374.59147304630017 1225.5002866800992 387.7042173678673Q1219.556659581071 400.8169616894344 1219.556659581071 419.138039035923L1219.556659581071 419.138039035923Q1219.556659581071 437.45911638241165 1225.5002866800992 450.57186070397876Q1231.4745510322152 463.6846050255459 1242.5039621438136 470.6392614764705Q1253.5333732554122 477.5939179273951 1268.5149900153335 477.5939179273951L1268.5149900153335 477.5939179273951Q1283.7417047999568 477.5939179273951 1294.6485668992043 470.6392614764705Q1305.5860662515397 463.6846050255459 1311.5296933505676 450.57186070397876Q1317.5039577026835 437.45911638241165 1317.5039577026835 419.138039035923L1317.5039577026835 419.138039035923Q1317.5039577026835 400.8169616894344 1311.5296933505676 387.7042173678673Q1305.5860662515397 374.59147304630017 1294.6485668992043 367.63681659537554Q1283.7417047999568 360.6821601444509 1268.5149900153335 360.6821601444509ZM1476.7563992529308 346.34392569937285L1476.7563992529308 362.8880423667706L1392.5039532615533 362.8880423667706L1392.5039532615533 409.8855886034154L1458.2208611348276 409.8855886034154L1458.2208611348276 426.42970527081314L1392.5039532615533 426.42970527081314L1392.5039532615533 491.9321523724732L1374.856895482996 491.9321523724732L1374.856895482996 346.34392569937285L1476.7563992529308 346.34392569937285ZM1492.6264963523977 346.34392569937285L1611.7441363576615 346.34392569937285L1611.7441363576615 362.8880423667706L1561.0088452443085 362.8880423667706L1561.0088452443085 491.9321523724732L1543.3617874657507 491.9321523724732L1543.3617874657507 362.8880423667706L1492.6264963523977 362.8880423667706L1492.6264963523977 346.34392569937285Z " fill="#fcedda" transform="matrix(0.542890164949711,0,0,0.5428901649497109,0,72.45407709051877)"/></g></svg>